# Rhino

v -0.23513 1.3712e-05 -0.089784
v -0.23513 4.0748e-05 0.089802
v -0.23512 2.1152e-05 0.089809
v -0.23511 5.172e-06 0.089827
v -0.17013 0.10515 1.0714e-05
v -0.17013 -0.10515 1.6216e-05
v -0.14535 -0.1453 -0.14528
v -0.14534 -0.1453 0.1453
v -0.14531 0.1453 0.14531
v -0.14531 0.14533 -0.14529
v -0.10516 9.192e-06 -0.17012
v -0.10515 9.192e-06 0.17013
v -0.089832 -0.23511 -8.6404e-06
v -0.089832 0.23511 -8.6404e-06
v -2.3049e-05 -0.089832 -0.23511
v -1.4198e-05 0.0898 0.23512
v -5.7825e-06 -0.089832 0.23511
v -3.1235e-06 0.089816 -0.23511
v 3.8857e-06 -0.17013 0.10515
v 3.8857e-06 0.17012 0.10515
v 5.0224e-06 0.17012 -0.10515
v 7.1385e-06 -0.17013 -0.10515
v 1.4198e-05 0.0898 -0.23512
v 0.089786 0.23513 2.2433e-05
v 0.08979 -0.23513 3.8957e-05
v 0.10515 1.568e-06 0.17012
v 0.10516 -9.192e-06 -0.17012
v 0.14528 0.14533 -0.14532
v 0.14528 -0.14535 -0.14531
v 0.1453 0.14532 0.14532
v 0.1453 -0.14531 0.14533
v 0.17013 -0.10515 5.0043e-06
v 0.17013 0.10515 -3.9052e-06
v 0.23511 -1.298e-05 -0.089838
v 0.23511 -3.484e-06 0.089812
v 0.23511 -3.484e-06 0.089812
vn -0.52577 2.8933e-05 0.85062
vn -0.52577 2.8933e-05 0.85062
vn -0.52577 2.8933e-05 0.85062
vn -0.52577 5.8625e-05 0.85063
vn -0.52577 5.8625e-05 0.85063
vn -0.52577 5.8625e-05 0.85063
vn -0.52578 3.1349e-05 0.85062
vn -0.52578 3.1349e-05 0.85062
vn -0.52578 3.1349e-05 0.85062
vn -0.85063 -0.52577 4.2741e-05
vn -0.85063 -0.52577 4.2741e-05
vn -0.85063 -0.52577 4.2741e-05
vn -0.85064 -0.52575 5.2607e-05
vn -0.85064 -0.52575 5.2607e-05
vn -0.85064 -0.52575 5.2607e-05
vn -0.85064 0.52575 -1.2221e-05
vn -0.85064 0.52575 -1.2221e-05
vn -0.85064 0.52575 -1.2221e-05
vn -0.85064 0.52575 -2.4976e-05
vn -0.85064 0.52575 -2.4976e-05
vn -0.85064 0.52575 -2.4976e-05
vn -0.85064 0.52574 -6.9479e-06
vn -0.85064 0.52574 -6.9479e-06
vn -0.85064 0.52574 -6.9479e-06
vn 0.85063 0.52577 -0.00010217
vn 0.85063 0.52577 -0.00010217
vn 0.85063 0.52577 -0.00010217
vn 0.85063 0.52576 -5.0063e-05
vn 0.85063 0.52576 -5.0063e-05
vn 0.85063 0.52576 -5.0063e-05
vn 0.85064 -0.52575 -7.0273e-05
vn 0.85064 -0.52575 -7.0273e-05
vn 0.85064 -0.52575 -7.0273e-05
vn 0.85066 -0.52571 -2.622e-05
vn 0.85066 -0.52571 -2.622e-05
vn 0.85066 -0.52571 -2.622e-05
vn 0.85064 -0.52574 -6.9949e-06
vn 0.85064 -0.52574 -6.9949e-06
vn 0.85064 -0.52574 -6.9949e-06
vn 4.0784e-06 -0.85064 -0.52574
vn 4.0784e-06 -0.85064 -0.52574
vn 4.0784e-06 -0.85064 -0.52574
vn -2.8964e-05 -0.85064 0.52574
vn -2.8964e-05 -0.85064 0.52574
vn -2.8964e-05 -0.85064 0.52574
vn -2.6437e-05 -0.85064 0.52574
vn -2.6437e-05 -0.85064 0.52574
vn -2.6437e-05 -0.85064 0.52574
vn -3.5371e-05 -0.85064 0.52575
vn -3.5371e-05 -0.85064 0.52575
vn -3.5371e-05 -0.85064 0.52575
vn -4.4647e-06 -0.85064 0.52575
vn -4.4647e-06 -0.85064 0.52575
vn -4.4647e-06 -0.85064 0.52575
vn -5.8388e-05 0.85064 0.52575
vn -5.8388e-05 0.85064 0.52575
vn -5.8388e-05 0.85064 0.52575
vn -5.6483e-05 0.85065 0.52573
vn -5.6483e-05 0.85065 0.52573
vn -5.6483e-05 0.85065 0.52573
vn -3.1323e-05 0.85065 0.52573
vn -3.1323e-05 0.85065 0.52573
vn -3.1323e-05 0.85065 0.52573
vn -2.8686e-05 0.85064 -0.52576
vn -2.8686e-05 0.85064 -0.52576
vn -2.8686e-05 0.85064 -0.52576
vn -2.5139e-05 0.85065 -0.52573
vn -2.5139e-05 0.85065 -0.52573
vn -2.5139e-05 0.85065 -0.52573
vn -1.4763e-05 0.85065 -0.52573
vn -1.4763e-05 0.85065 -0.52573
vn -1.4763e-05 0.85065 -0.52573
vn -0.52578 -5.2674e-06 -0.85062
vn -0.52578 -5.2674e-06 -0.85062
vn -0.52578 -5.2674e-06 -0.85062
vn 0.52573 -5.5025e-05 -0.85065
vn 0.52573 -5.5025e-05 -0.85065
vn 0.52573 -5.5025e-05 -0.85065
vn 0.52571 -6.3414e-05 -0.85066
vn 0.52571 -6.3414e-05 -0.85066
vn 0.52571 -6.3414e-05 -0.85066
vn 0.52572 -2.2244e-05 -0.85066
vn 0.52572 -2.2244e-05 -0.85066
vn 0.52572 -2.2244e-05 -0.85066
vn 0.52577 -5.8625e-05 0.85063
vn 0.52577 -5.8625e-05 0.85063
vn 0.52577 -5.8625e-05 0.85063
vn -4.3906e-05 0.85065 -0.52573
vn -4.3906e-05 0.85065 -0.52573
vn -4.3906e-05 0.85065 -0.52573
vn -0.52577 4.9816e-05 0.85062
vn -0.52577 4.9816e-05 0.85062
vn -0.52577 4.9816e-05 0.85062
vn -0.52576 4.9753e-05 0.85063
vn -0.52576 4.975e-05 0.85063
vn -0.52578 3.1349e-05 0.85062
vn -0.85063 -0.52577 6.9685e-06
vn -0.85063 -0.52577 6.9685e-06
vn -0.85063 -0.52577 6.9685e-06
vn -0.85065 -0.52573 4.7085e-06
vn -0.85065 -0.52573 4.7085e-06
vn -0.85065 -0.52573 4.7146e-06
vn -0.85064 -0.52575 5.2607e-05
vn -0.85065 -0.52573 4.7109e-06
vn -0.85066 -0.52572 3.8234e-05
vn -0.85066 -0.52572 3.8234e-05
vn -0.85066 -0.52572 3.8234e-05
vn -0.85065 0.52573 -3.7877e-05
vn -0.85065 0.52573 -3.7877e-05
vn -0.85065 0.52573 -3.7877e-05
vn -0.85066 0.52572 -2.7243e-06
vn -0.85066 0.52572 -2.7243e-06
vn -0.85066 0.52572 -2.7243e-06
vn 0.85063 0.52576 -7.7004e-05
vn 0.85063 0.52576 -7.7004e-05
vn 0.85063 0.52576 -7.7004e-05
vn 0.85065 0.52573 -8.7097e-05
vn 0.85065 0.52573 -8.7097e-05
vn 0.85065 0.52573 -8.7096e-05
vn 0.85065 0.52573 -6.7161e-05
vn 0.85065 0.52573 -8.7096e-05
vn 0.85066 -0.52571 -2.622e-05
vn 0.85067 0.5257 -6.7161e-05
vn 0.85065 0.52573 -6.7161e-05
vn 0.85065 0.52573 -6.7161e-05
vn 0.85065 0.52573 -6.7161e-05
vn 0.85065 -0.52573 -8.2107e-05
vn 0.85063 -0.52577 -3.2621e-05
vn 0.85063 -0.52577 -3.2624e-05
vn 0.85065 -0.52573 -8.2107e-05
vn 0.85065 -0.52573 -8.2107e-05
vn 0.85065 -0.52573 -8.2107e-05
vn -1.8716e-05 -0.85064 -0.52574
vn -1.8716e-05 -0.85064 -0.52574
vn -1.8716e-05 -0.85064 -0.52574
vn -3.6293e-05 -0.85064 -0.52576
vn -3.6293e-05 -0.85064 -0.52576
vn -3.6293e-05 -0.85064 -0.52576
vn -3.6588e-05 -0.85064 -0.52574
vn -3.6588e-05 -0.85064 -0.52574
vn -3.6588e-05 -0.85064 -0.52574
vn -1.6178e-05 -0.85064 -0.52574
vn -1.6175e-05 -0.85064 -0.52574
vn 4.0784e-06 -0.85064 -0.52574
vn -1.2411e-05 -0.85064 0.52575
vn -1.2411e-05 -0.85064 0.52575
vn -1.2411e-05 -0.85064 0.52575
vn -2.0077e-05 0.85063 0.52577
vn -2.0077e-05 0.85063 0.52577
vn -2.0077e-05 0.85063 0.52577
vn -5.4072e-07 0.85065 0.52574
vn -5.4072e-07 0.85065 0.52574
vn -5.4072e-07 0.85065 0.52574
vn -1.0259e-05 0.85064 -0.52575
vn -1.0259e-05 0.85064 -0.52575
vn -1.0259e-05 0.85064 -0.52575
vn -0.52579 -1.0566e-05 -0.85061
vn -0.52579 -1.0566e-05 -0.85061
vn -0.52579 -1.0566e-05 -0.85061
vn -0.52578 -3.0227e-05 -0.85062
vn -0.52578 -3.0227e-05 -0.85062
vn -0.52578 -3.0227e-05 -0.85062
vn -0.52575 -1.6092e-05 -0.85064
vn -0.52575 -1.6091e-05 -0.85064
vn -0.52578 -5.2674e-06 -0.85062
vn -0.52576 -9.9328e-06 -0.85063
vn -0.52576 -9.9328e-06 -0.85063
vn -0.52576 -9.9328e-06 -0.85063
vn 0.52571 -6.3414e-05 -0.85066
vn 0.52571 -6.1476e-05 -0.85066
vn 0.52571 -6.1476e-05 -0.85066
vn 0.5257 -4.4515e-05 -0.85067
vn 0.5257 -4.4515e-05 -0.85067
vn 0.5257 -4.4515e-05 -0.85067
vn 0.52578 -3.1349e-05 0.85062
vn 0.52578 -3.1349e-05 0.85062
vn 0.52578 -3.1349e-05 0.85062
vn 0.52576 -4.9753e-05 0.85063
vn 0.52576 -4.9753e-05 0.85063
vn 0.52576 -4.9753e-05 0.85063
vn 0.52577 -4.9816e-05 0.85062
vn 0.52577 -4.9816e-05 0.85062
vn 0.52577 -4.9816e-05 0.85062
vn 0.52577 -4.9817e-05 0.85062
vn 0.52577 -5.8625e-05 0.85063
vn 0.52577 -2.8933e-05 0.85062
vn 0.52577 -2.8933e-05 0.85062
vn 0.52577 -2.8933e-05 0.85062
f 18//1 27//2 28//3
f 34//4 27//5 29//6
f 28//7 27//8 34//9
f 28//10 33//11 24//12
f 34//13 33//14 28//15
f 29//16 25//17 32//18
f 25//19 31//20 32//21
f 34//22 29//23 32//24
f 13//25 6//26 8//27
f 1//28 6//29 7//30
f 14//31 9//32 5//33
f 2//34 1//35 5//36
f 1//37 10//38 5//39
f 14//40 20//41 9//42
f 10//43 18//44 21//45
f 18//46 28//47 21//48
f 28//49 24//50 21//51
f 14//52 10//53 21//54
f 15//55 22//56 29//57
f 29//58 22//59 25//60
f 25//61 22//62 13//63
f 17//64 31//65 19//66
f 25//67 13//68 19//69
f 13//70 8//71 19//72
f 17//73 26//74 31//75
f 8//76 2//77 12//78
f 2//79 9//80 12//81
f 17//82 8//83 12//84
f 1//85 11//86 10//87
f 19//88 31//90 25//89
f 27//91 18//93 15//92
f 29//95 27//96 15//94
f 30//97 24//98 33//99
f 35//100 36//101 33//103
f 30//102 33//103 36//101
f 33//103 36//104 35//100
f 34//105 36//107 33//106
f 32//108 31//109 36//110
f 32//111 36//113 34//112
f 6//114 13//116 7//115
f 4//117 2//118 6//120
f 8//119 6//120 2//118
f 6//120 2//121 4//117
f 1//122 2//123 6//126
f 2//123 3//124 6//126
f 3//124 2//125 6//126
f 14//129 5//127 10//128
f 5//130 9//131 2//132
f 20//133 16//135 9//134
f 30//136 16//138 20//137
f 24//139 30//141 20//140
f 24//143 20//144 14//142
f 21//145 24//147 14//146
f 22//148 15//150 7//149
f 22//151 7//152 13//153
f 19//154 8//155 17//156
f 26//157 36//159 31//158
f 30//160 36//162 26//161
f 30//164 26//165 16//163
f 26//166 17//168 16//167
f 12//169 9//170 16//171
f 12//172 16//174 17//173
f 11//175 1//176 7//177
f 18//178 10//179 11//180
f 15//181 18//182 11//185
f 18//182 23//183 11//185
f 23//183 18//184 11//185
f 11//186 7//187 15//188
